<?xml version="1.0" encoding="UTF-8"?>
<svg width="300" height="300" viewBox="0 0 300 300" version="1.1" xmlns="http://www.w3.org/2000/svg" xmlns:xlink="http://www.w3.org/1999/xlink">
 <path d="M235.87,168.18 c16.62,16.62,16.62,43.57,0,60.19 c-16.62,16.62,-43.57,16.62,-60.19,0 c-16.62,-16.62,-16.62,-43.57,-0.0,-60.19 c16.62,-16.62,43.57,-16.62,60.19,-0.0 Z M235.87,168.18" fill="rgb(0,0,93)" fill-opacity="0.1" stroke="rgb(0,0,0)" stroke-opacity="0.0" stroke-width="0" transform="matrix(1,0,0,-1,0,300)"/>
 <path d="M203.82,185.48 c18.71,18.71,18.71,49.03,0,67.74 c-18.71,18.71,-49.03,18.71,-67.74,0 c-18.71,-18.71,-18.71,-49.03,-0.0,-67.74 c18.71,-18.71,49.03,-18.71,67.74,0 Z M203.82,185.48" fill="rgb(0,0,81)" fill-opacity="0.1" stroke="rgb(0,0,0)" stroke-opacity="0.0" stroke-width="0" transform="matrix(1,0,0,-1,0,300)"/>
 <path d="M198.79,158.95 c14.54,14.54,14.54,38.12,0,52.67 c-14.54,14.54,-38.12,14.54,-52.67,0.0 c-14.54,-14.54,-14.54,-38.12,-0.0,-52.67 c14.54,-14.54,38.12,-14.54,52.67,-0.0 Z M198.79,158.95" fill="rgb(0,0,1)" fill-opacity="0.1" stroke="rgb(0,0,0)" stroke-opacity="0.0" stroke-width="0" transform="matrix(1,0,0,-1,0,300)"/>
 <path d="M171.04,138.9 c15.63,15.63,15.63,40.97,0,56.6 c-15.63,15.63,-40.97,15.63,-56.6,0 c-15.63,-15.63,-15.63,-40.97,0,-56.6 c15.63,-15.63,40.97,-15.63,56.6,0 Z M171.04,138.9" fill="rgb(0,0,116)" fill-opacity="0.1" stroke="rgb(0,0,0)" stroke-opacity="0.0" stroke-width="0" transform="matrix(1,0,0,-1,0,300)"/>
 <path d="M225.58,191.4 c17.56,17.56,17.56,46.03,0,63.59 c-17.56,17.56,-46.03,17.56,-63.59,0 c-17.56,-17.56,-17.56,-46.03,0,-63.59 c17.56,-17.56,46.03,-17.56,63.59,0 Z M225.58,191.4" fill="rgb(0,0,86)" fill-opacity="0.4" stroke="rgb(0,0,0)" stroke-opacity="0.0" stroke-width="0" transform="matrix(1,0,0,-1,0,300)"/>
 <path d="M220.04,251.47 c18.56,18.56,18.56,48.66,0,67.23 c-18.56,18.56,-48.66,18.56,-67.23,0 c-18.56,-18.56,-18.56,-48.66,-0.0,-67.23 c18.56,-18.56,48.66,-18.56,67.23,-0.0 Z M220.04,251.47" fill="rgb(0,0,152)" fill-opacity="0.4" stroke="rgb(0,0,0)" stroke-opacity="0.0" stroke-width="0" transform="matrix(1,0,0,-1,0,300)"/>
 <path d="M246.67,173.05 c18.24,18.24,18.24,47.8,0,66.04 c-18.24,18.24,-47.8,18.24,-66.04,0 c-18.24,-18.24,-18.24,-47.8,0,-66.04 c18.24,-18.24,47.8,-18.24,66.04,0 Z M246.67,173.05" fill="rgb(0,0,203)" fill-opacity="0.4" stroke="rgb(0,0,0)" stroke-opacity="0.0" stroke-width="0" transform="matrix(1,0,0,-1,0,300)"/>
 <path d="M279.77,122.62 c18.7,18.7,18.7,49.01,0,67.71 c-18.7,18.7,-49.01,18.7,-67.71,0 c-18.7,-18.7,-18.7,-49.01,0,-67.71 c18.7,-18.7,49.01,-18.7,67.71,0 Z M279.77,122.62" fill="rgb(0,0,139)" fill-opacity="0.4" stroke="rgb(0,0,0)" stroke-opacity="0.0" stroke-width="0" transform="matrix(1,0,0,-1,0,300)"/>
 <path d="M185.96,174.47 c14.39,14.39,14.39,37.71,0,52.09 c-14.39,14.39,-37.71,14.39,-52.09,0 c-14.39,-14.39,-14.39,-37.71,0,-52.09 c14.39,-14.39,37.71,-14.39,52.09,0 Z M185.96,174.47" fill="rgb(0,0,77)" fill-opacity="0.4" stroke="rgb(0,0,0)" stroke-opacity="0.0" stroke-width="0" transform="matrix(1,0,0,-1,0,300)"/>
 <path d="M269.03,141.8 c19.44,19.44,19.44,50.97,0,70.41 c-19.44,19.44,-50.97,19.44,-70.41,0 c-19.44,-19.44,-19.44,-50.97,0,-70.41 c19.44,-19.44,50.97,-19.44,70.41,0 Z M269.03,141.8" fill="rgb(0,0,241)" fill-opacity="0.1" stroke="rgb(0,0,0)" stroke-opacity="0.0" stroke-width="0" transform="matrix(1,0,0,-1,0,300)"/>
 <path d="M226.45,193.75 c16.31,16.31,16.31,42.74,0,59.05 c-16.31,16.31,-42.74,16.31,-59.05,0.0 c-16.31,-16.31,-16.31,-42.74,0,-59.05 c16.31,-16.31,42.74,-16.31,59.05,-0.0 Z M226.45,193.75" fill="rgb(0,0,59)" fill-opacity="0.1" stroke="rgb(0,0,0)" stroke-opacity="0.0" stroke-width="0" transform="matrix(1,0,0,-1,0,300)"/>
 <path d="M197.89,215.21 c12.23,12.23,12.23,32.07,0,44.3 c-12.23,12.23,-32.07,12.23,-44.3,0 c-12.23,-12.23,-12.23,-32.07,-0.0,-44.3 c12.23,-12.23,32.07,-12.23,44.3,-0.0 Z M197.89,215.21" fill="rgb(0,0,120)" fill-opacity="0.1" stroke="rgb(0,0,0)" stroke-opacity="0.0" stroke-width="0" transform="matrix(1,0,0,-1,0,300)"/>
</svg>