<?xml version="1.0" encoding="UTF-8"?>
<svg width="300" height="300" viewBox="0 0 300 300" version="1.1" xmlns="http://www.w3.org/2000/svg" xmlns:xlink="http://www.w3.org/1999/xlink">
 <path d="M255.39,177.56 c19.11,19.11,19.11,50.1,0,69.21 c-19.11,19.11,-50.1,19.11,-69.21,0 c-19.11,-19.11,-19.11,-50.1,-0.0,-69.21 c19.11,-19.11,50.1,-19.11,69.21,-0.0 Z M255.39,177.56" fill="rgb(0,0,152)" fill-opacity="0.1" stroke="rgb(0,0,0)" stroke-opacity="0.0" stroke-width="0" transform="matrix(1,0,0,-1,0,300)"/>
 <path d="M218.46,165.39 c16.81,16.81,16.81,44.05,0,60.86 c-16.81,16.81,-44.05,16.81,-60.86,0 c-16.81,-16.81,-16.81,-44.05,0,-60.86 c16.81,-16.81,44.05,-16.81,60.86,0 Z M218.46,165.39" fill="rgb(0,0,87)" fill-opacity="0.1" stroke="rgb(0,0,0)" stroke-opacity="0.0" stroke-width="0" transform="matrix(1,0,0,-1,0,300)"/>
 <path d="M220.14,128.08 c18.6,18.6,18.6,48.76,0,67.36 c-18.6,18.6,-48.76,18.6,-67.36,0 c-18.6,-18.6,-18.6,-48.76,0,-67.36 c18.6,-18.6,48.76,-18.6,67.36,0 Z M220.14,128.08" fill="rgb(0,0,143)" fill-opacity="0.1" stroke="rgb(0,0,0)" stroke-opacity="0.0" stroke-width="0" transform="matrix(1,0,0,-1,0,300)"/>
 <path d="M231.1,116.66 c19.02,19.02,19.02,49.85,0,68.87 c-19.02,19.02,-49.85,19.02,-68.87,0 c-19.02,-19.02,-19.02,-49.85,0,-68.87 c19.02,-19.02,49.85,-19.02,68.87,0 Z M231.1,116.66" fill="rgb(0,0,172)" fill-opacity="0.1" stroke="rgb(0,0,0)" stroke-opacity="0.0" stroke-width="0" transform="matrix(1,0,0,-1,0,300)"/>
 <path d="M221.31,200.73 c15.42,15.42,15.42,40.41,0,55.83 c-15.42,15.42,-40.41,15.42,-55.83,0 c-15.42,-15.42,-15.42,-40.41,0,-55.83 c15.42,-15.42,40.41,-15.42,55.83,0 Z M221.31,200.73" fill="rgb(0,0,23)" fill-opacity="0.1" stroke="rgb(0,0,0)" stroke-opacity="0.0" stroke-width="0" transform="matrix(1,0,0,-1,0,300)"/>
 <path d="M197.87,126.86 c15.16,15.16,15.16,39.73,0,54.88 c-15.16,15.16,-39.73,15.16,-54.88,0 c-15.16,-15.16,-15.16,-39.73,0,-54.88 c15.16,-15.16,39.73,-15.16,54.88,-0.0 Z M197.87,126.86" fill="rgb(0,0,82)" fill-opacity="0.4" stroke="rgb(0,0,0)" stroke-opacity="0.0" stroke-width="0" transform="matrix(1,0,0,-1,0,300)"/>
 <path d="M225.13,189.04 c17.05,17.05,17.05,44.7,0,61.76 c-17.05,17.05,-44.7,17.05,-61.76,0 c-17.05,-17.05,-17.05,-44.7,-0.0,-61.76 c17.05,-17.05,44.7,-17.05,61.76,0 Z M225.13,189.04" fill="rgb(0,0,120)" fill-opacity="0.4" stroke="rgb(0,0,0)" stroke-opacity="0.0" stroke-width="0" transform="matrix(1,0,0,-1,0,300)"/>
 <path d="M143.94,143.97 c12.56,12.56,12.56,32.93,0,45.49 c-12.56,12.56,-32.93,12.56,-45.49,0 c-12.56,-12.56,-12.56,-32.93,-0.0,-45.49 c12.56,-12.56,32.93,-12.56,45.49,0 Z M143.94,143.97" fill="rgb(0,0,50)" fill-opacity="0.1" stroke="rgb(0,0,0)" stroke-opacity="0.0" stroke-width="0" transform="matrix(1,0,0,-1,0,300)"/>
 <path d="M256.2,170.55 c16.55,16.55,16.55,43.39,0,59.94 c-16.55,16.55,-43.39,16.55,-59.94,0 c-16.55,-16.55,-16.55,-43.39,-0.0,-59.94 c16.55,-16.55,43.39,-16.55,59.94,-0.0 Z M256.2,170.55" fill="rgb(0,0,84)" fill-opacity="0.4" stroke="rgb(0,0,0)" stroke-opacity="0.0" stroke-width="0" transform="matrix(1,0,0,-1,0,300)"/>
 <path d="M212.41,172.12 c16.05,16.05,16.05,42.08,0,58.14 c-16.05,16.05,-42.08,16.05,-58.14,0 c-16.05,-16.05,-16.05,-42.08,-0.0,-58.14 c16.05,-16.05,42.08,-16.05,58.14,0 Z M212.41,172.12" fill="rgb(0,0,101)" fill-opacity="0.1" stroke="rgb(0,0,0)" stroke-opacity="0.0" stroke-width="0" transform="matrix(1,0,0,-1,0,300)"/>
 <path d="M254.93,164.4 c19.19,19.19,19.19,50.31,0,69.5 c-19.19,19.19,-50.31,19.19,-69.5,0 c-19.19,-19.19,-19.19,-50.31,0,-69.5 c19.19,-19.19,50.31,-19.19,69.5,0 Z M254.93,164.4" fill="rgb(0,0,223)" fill-opacity="0.1" stroke="rgb(0,0,0)" stroke-opacity="0.0" stroke-width="0" transform="matrix(1,0,0,-1,0,300)"/>
 <path d="M233.77,159.97 c18.06,18.06,18.06,47.33,0,65.39 c-18.06,18.06,-47.33,18.06,-65.39,0 c-18.06,-18.06,-18.06,-47.33,0,-65.39 c18.06,-18.06,47.33,-18.06,65.39,0 Z M233.77,159.97" fill="rgb(0,0,196)" fill-opacity="0.1" stroke="rgb(0,0,0)" stroke-opacity="0.0" stroke-width="0" transform="matrix(1,0,0,-1,0,300)"/>
</svg>